<?xml version="1.0" standalone="no"?>
<!DOCTYPE svg PUBLIC "-//W3C//DTD SVG 20010904//EN"
 "http://www.w3.org/TR/2001/REC-SVG-20010904/DTD/svg10.dtd">
<svg version="1.0" xmlns="http://www.w3.org/2000/svg"
 width="260.000000pt" height="260.000000pt" viewBox="0 0 260.000000 260.000000"
 preserveAspectRatio="xMidYMid meet">
<metadata>
Created by potrace 1.11, written by Peter Selinger 2001-2013
</metadata>
<g transform="translate(0.000000,260.000000) scale(0.100000,-0.100000)"
fill="#000000" stroke="none">
<path d="M517 2534 c-1 -1 -20 -4 -43 -7 -104 -15 -216 -78 -298 -168 -147
-163 -179 -395 -81 -594 44 -90 100 -154 184 -209 82 -54 131 -72 226 -82 28
-3 55 -7 60 -8 7 -2 10 -147 10 -418 0 -369 -2 -417 -17 -440 -9 -14 -63 -52
-120 -86 -57 -34 -109 -71 -116 -82 -9 -15 -13 -66 -14 -167 0 -129 2 -148 19
-171 11 -14 30 -29 44 -32 13 -3 439 -6 946 -5 880 0 922 1 941 19 12 10 25
30 30 44 12 38 8 283 -6 308 -6 12 -61 51 -122 88 -60 37 -115 76 -120 87 -10
17 -12 202 -10 727 l0 132 38 0 c196 0 419 179 472 380 19 70 20 81 21 145 4
242 -164 463 -401 526 -33 9 -253 13 -843 13 -439 1 -799 1 -800 0z m132 -199
c83 -16 185 -95 226 -175 87 -173 19 -377 -155 -466 -48 -25 -66 -28 -145 -28
-73 -1 -100 3 -142 23 -63 28 -146 113 -175 178 -64 144 -11 323 123 414 86
59 161 74 268 54z m1448 0 c84 -15 188 -96 231 -182 76 -149 21 -347 -121
-437 -102 -64 -222 -73 -328 -24 -266 123 -260 509 10 625 65 28 124 33 208
18z m-1101 -799 c31 -31 34 -39 35 -97 4 -538 -1 -970 -11 -991 -20 -38 -52
-58 -95 -58 -43 0 -75 20 -95 59 -17 34 -18 1017 -1 1058 15 36 56 62 100 63
24 0 42 -9 67 -34z m387 -6 l27 -30 1 -263 c1 -582 -2 -768 -12 -791 -28 -60
-119 -74 -171 -27 l-33 29 -3 513 c-2 382 1 521 9 542 30 72 129 86 182 27z
m341 28 c14 -6 34 -23 43 -37 16 -24 17 -70 18 -531 1 -278 -3 -517 -8 -533
-28 -85 -154 -91 -196 -9 -9 17 -12 162 -13 534 0 491 1 512 19 537 36 48 87
62 137 39z"/>
<path d="M487 2159 c-73 -38 -113 -141 -85 -220 22 -64 105 -119 178 -119 42
1 106 36 136 76 25 33 29 46 29 104 0 54 -5 73 -25 103 -51 74 -152 99 -233
56z"/>
<path d="M1945 2165 c-46 -25 -66 -46 -87 -92 -35 -78 -8 -173 61 -218 93 -62
211 -32 261 66 40 77 15 181 -56 228 -46 32 -135 39 -179 16z"/>
</g>
</svg>
